<svg width="64" height="64" viewBox="0 0 64 64" fill="none" xmlns="http://www.w3.org/2000/svg">
<path d="M5 62C4.73478 62 4.48043 61.8946 4.29289 61.7071C4.10536 61.5196 4 61.2652 4 61V55C4 54.7348 4.10536 54.4804 4.29289 54.2929C4.48043 54.1054 4.73478 54 5 54C5.26522 54 5.51957 54.1054 5.70711 54.2929C5.89464 54.4804 6 54.7348 6 55V61C6 61.2652 5.89464 61.5196 5.70711 61.7071C5.51957 61.8946 5.26522 62 5 62Z" fill="#B6CCFE"/>
<path d="M8 52.9999C8 53.7956 7.68393 54.5586 7.12132 55.1213C6.55871 55.6839 5.79565 55.9999 5 55.9999C4.20435 55.9999 3.44129 55.6839 2.87868 55.1213C2.31607 54.5586 2 53.7956 2 52.9999C2 51.3999 3.25 46.3699 4.83 45.9999C4.8862 45.9896 4.9438 45.9896 5 45.9999C6.61 45.9999 7.91 50.9999 8 52.8199C8.00541 52.8798 8.00541 52.9401 8 52.9999Z" fill="#CAFFBF"/>
<path d="M8 52.8199C7.67964 52.9375 7.34125 52.9984 7 52.9999C6.20435 52.9999 5.44129 52.6839 4.87868 52.1213C4.31607 51.5586 4 50.7956 4 49.9999C4.09481 48.6352 4.37401 47.2897 4.83 45.9999C4.8862 45.9896 4.9438 45.9896 5 45.9999C6.61 45.9999 7.91 50.9999 8 52.8199Z" fill="#50DE70"/>
<path d="M59 62C58.7348 62 58.4804 61.8946 58.2929 61.7071C58.1054 61.5196 58 61.2652 58 61V55C58 54.7348 58.1054 54.4804 58.2929 54.2929C58.4804 54.1054 58.7348 54 59 54C59.2652 54 59.5196 54.1054 59.7071 54.2929C59.8946 54.4804 60 54.7348 60 55V61C60 61.2652 59.8946 61.5196 59.7071 61.7071C59.5196 61.8946 59.2652 62 59 62Z" fill="#B6CCFE"/>
<path d="M55.9999 52.9999C55.9999 53.7956 56.316 54.5586 56.8786 55.1213C57.4412 55.6839 58.2043 55.9999 58.9999 55.9999C59.7956 55.9999 60.5586 55.6839 61.1212 55.1213C61.6838 54.5586 61.9999 53.7956 61.9999 52.9999C61.9999 51.3999 60.7499 46.3699 59.1699 45.9999C59.1137 45.9896 59.0561 45.9896 58.9999 45.9999C57.3899 45.9999 56.0899 50.9999 55.9999 52.8199C55.9945 52.8798 55.9945 52.9401 55.9999 52.9999Z" fill="#CAFFBF"/>
<path d="M56 52.8199C56.3204 52.9375 56.6587 52.9984 57 52.9999C57.7956 52.9999 58.5587 52.6839 59.1213 52.1213C59.6839 51.5586 60 50.7956 60 49.9999C59.9052 48.6352 59.626 47.2897 59.17 45.9999C59.1138 45.9896 59.0562 45.9896 59 45.9999C57.39 45.9999 56.09 50.9999 56 52.8199Z" fill="#50DE70"/>
<path d="M62 63H2C1.73478 63 1.48043 62.8946 1.29289 62.7071C1.10536 62.5196 1 62.2652 1 62C1 61.7348 1.10536 61.4804 1.29289 61.2929C1.48043 61.1054 1.73478 61 2 61H62C62.2652 61 62.5196 61.1054 62.7071 61.2929C62.8946 61.4804 63 61.7348 63 62C63 62.2652 62.8946 62.5196 62.7071 62.7071C62.5196 62.8946 62.2652 63 62 63Z" fill="#7361DE"/>
<path d="M27 8V1H37V8" fill="#5E41B5"/>
<path d="M27 8C27 6.14348 27.7375 4.36301 29.0503 3.05025C30.363 1.7375 32.1435 1 34 1H37V8" fill="#7361DE"/>
<path d="M46 8H18V61H46V8Z" fill="#5E41B5"/>
<path d="M46 8V33C46 40.4261 43.05 47.548 37.799 52.799C32.548 58.05 25.4261 61 18 61V36C18 28.5739 20.95 21.452 26.201 16.201C31.452 10.95 38.5739 8 46 8Z" fill="#7361DE"/>
<path d="M40 47H24V61H40V47Z" fill="#FFC6FF"/>
<path d="M24 61V55C24 52.8783 24.8429 50.8434 26.3431 49.3431C27.8434 47.8429 29.8783 47 32 47C34.1217 47 36.1566 47.8429 37.6569 49.3431C39.1571 50.8434 40 52.8783 40 55V61" fill="#9BF6FF"/>
<path d="M52 41H12C11.7348 41 11.4804 40.8946 11.2929 40.7071C11.1054 40.5196 11 40.2652 11 40C11 39.7348 11.1054 39.4804 11.2929 39.2929C11.4804 39.1054 11.7348 39 12 39H52C52.2652 39 52.5196 39.1054 52.7071 39.2929C52.8946 39.4804 53 39.7348 53 40C53 40.2652 52.8946 40.5196 52.7071 40.7071C52.5196 40.8946 52.2652 41 52 41ZM52 28H12C11.7348 28 11.4804 27.8946 11.2929 27.7071C11.1054 27.5196 11 27.2652 11 27C11 26.7348 11.1054 26.4804 11.2929 26.2929C11.4804 26.1054 11.7348 26 12 26H52C52.2652 26 52.5196 26.1054 52.7071 26.2929C52.8946 26.4804 53 26.7348 53 27C53 27.2652 52.8946 27.5196 52.7071 27.7071C52.5196 27.8946 52.2652 28 52 28ZM52 9H12C11.7348 9 11.4804 8.89464 11.2929 8.70711C11.1054 8.51957 11 8.26522 11 8C11 7.73478 11.1054 7.48043 11.2929 7.29289C11.4804 7.10536 11.7348 7 12 7H52C52.2652 7 52.5196 7.10536 52.7071 7.29289C52.8946 7.48043 53 7.73478 53 8C53 8.26522 52.8946 8.51957 52.7071 8.70711C52.5196 8.89464 52.2652 9 52 9Z" fill="#5E41B5"/>
<path d="M33 47H31V61H33V47Z" fill="#50DE70"/>
<path d="M22 23C21.7348 23 21.4804 22.8946 21.2929 22.7071C21.1054 22.5196 21 22.2652 21 22V20C21 19.7348 21.1054 19.4804 21.2929 19.2929C21.4804 19.1054 21.7348 19 22 19C22.2652 19 22.5196 19.1054 22.7071 19.2929C22.8946 19.4804 23 19.7348 23 20V22C23 22.2652 22.8946 22.5196 22.7071 22.7071C22.5196 22.8946 22.2652 23 22 23ZM32 23C31.7348 23 31.4804 22.8946 31.2929 22.7071C31.1054 22.5196 31 22.2652 31 22V20C31 19.7348 31.1054 19.4804 31.2929 19.2929C31.4804 19.1054 31.7348 19 32 19C32.2652 19 32.5196 19.1054 32.7071 19.2929C32.8946 19.4804 33 19.7348 33 20V22C33 22.2652 32.8946 22.5196 32.7071 22.7071C32.5196 22.8946 32.2652 23 32 23ZM42 23C41.7348 23 41.4804 22.8946 41.2929 22.7071C41.1054 22.5196 41 22.2652 41 22V20C41 19.7348 41.1054 19.4804 41.2929 19.2929C41.4804 19.1054 41.7348 19 42 19C42.2652 19 42.5196 19.1054 42.7071 19.2929C42.8946 19.4804 43 19.7348 43 20V22C43 22.2652 42.8946 22.5196 42.7071 22.7071C42.5196 22.8946 42.2652 23 42 23ZM22 16C21.7348 16 21.4804 15.8946 21.2929 15.7071C21.1054 15.5196 21 15.2652 21 15V13C21 12.7348 21.1054 12.4804 21.2929 12.2929C21.4804 12.1054 21.7348 12 22 12C22.2652 12 22.5196 12.1054 22.7071 12.2929C22.8946 12.4804 23 12.7348 23 13V15C23 15.2652 22.8946 15.5196 22.7071 15.7071C22.5196 15.8946 22.2652 16 22 16ZM32 16C31.7348 16 31.4804 15.8946 31.2929 15.7071C31.1054 15.5196 31 15.2652 31 15V13C31 12.7348 31.1054 12.4804 31.2929 12.2929C31.4804 12.1054 31.7348 12 32 12C32.2652 12 32.5196 12.1054 32.7071 12.2929C32.8946 12.4804 33 12.7348 33 13V15C33 15.2652 32.8946 15.5196 32.7071 15.7071C32.5196 15.8946 32.2652 16 32 16ZM42 16C41.7348 16 41.4804 15.8946 41.2929 15.7071C41.1054 15.5196 41 15.2652 41 15V13C41 12.7348 41.1054 12.4804 41.2929 12.2929C41.4804 12.1054 41.7348 12 42 12C42.2652 12 42.5196 12.1054 42.7071 12.2929C42.8946 12.4804 43 12.7348 43 13V15C43 15.2652 42.8946 15.5196 42.7071 15.7071C42.5196 15.8946 42.2652 16 42 16Z" fill="#CCDBFD"/>
<path d="M22 36C21.7348 36 21.4804 35.8946 21.2929 35.7071C21.1054 35.5196 21 35.2652 21 35V33C21 32.7348 21.1054 32.4804 21.2929 32.2929C21.4804 32.1054 21.7348 32 22 32C22.2652 32 22.5196 32.1054 22.7071 32.2929C22.8946 32.4804 23 32.7348 23 33V35C23 35.2652 22.8946 35.5196 22.7071 35.7071C22.5196 35.8946 22.2652 36 22 36ZM32 36C31.7348 36 31.4804 35.8946 31.2929 35.7071C31.1054 35.5196 31 35.2652 31 35V33C31 32.7348 31.1054 32.4804 31.2929 32.2929C31.4804 32.1054 31.7348 32 32 32C32.2652 32 32.5196 32.1054 32.7071 32.2929C32.8946 32.4804 33 32.7348 33 33V35C33 35.2652 32.8946 35.5196 32.7071 35.7071C32.5196 35.8946 32.2652 36 32 36ZM42 36C41.7348 36 41.4804 35.8946 41.2929 35.7071C41.1054 35.5196 41 35.2652 41 35V33C41 32.7348 41.1054 32.4804 41.2929 32.2929C41.4804 32.1054 41.7348 32 42 32C42.2652 32 42.5196 32.1054 42.7071 32.2929C42.8946 32.4804 43 32.7348 43 33V35C43 35.2652 42.8946 35.5196 42.7071 35.7071C42.5196 35.8946 42.2652 36 42 36Z" fill="#5E41B5"/>
</svg>
