<svg width="48" height="48" viewBox="0 0 48 48" fill="none" xmlns="http://www.w3.org/2000/svg">
<path d="M24.4392 4.67969C20.6648 4.67969 16.9752 5.79893 13.8369 7.89588C10.6986 9.99283 8.25254 12.9733 6.80814 16.4604C5.36374 19.9475 4.98582 23.7846 5.72217 27.4865C6.45852 31.1884 8.27607 34.5888 10.945 37.2577C13.6139 39.9266 17.0143 41.7441 20.7162 42.4805C24.4181 43.2168 28.2552 42.8389 31.7423 41.3945C35.2294 39.9501 38.2098 37.5041 40.3068 34.3658C42.4037 31.2275 43.523 27.5378 43.523 23.7634C43.5176 18.7037 41.5053 13.8528 37.9276 10.2751C34.3498 6.69735 29.4989 4.68503 24.4392 4.67969ZM24.4392 39.9112C21.2455 39.9112 18.1235 38.9642 15.468 37.1898C12.8125 35.4155 10.7428 32.8935 9.52061 29.9429C8.29843 26.9923 7.97865 23.7455 8.60171 20.6132C9.22478 17.4808 10.7627 14.6035 13.021 12.3452C15.2793 10.0869 18.1566 8.54899 21.2889 7.92592C24.4213 7.30286 27.6681 7.62264 30.6187 8.84482C33.5693 10.067 36.0913 12.1367 37.8656 14.7922C39.64 17.4477 40.587 20.5697 40.587 23.7634C40.5821 28.0446 38.8793 32.149 35.8521 35.1763C32.8248 38.2035 28.7204 39.9064 24.4392 39.9112ZM18.7636 18.6732C19.5932 20.2417 20.0269 21.9891 20.0269 23.7634C20.0269 25.5378 19.5932 27.2852 18.7636 28.8537C18.6759 29.0282 18.5542 29.1834 18.4057 29.3103C18.2572 29.4372 18.0848 29.5332 17.8988 29.5926C17.7127 29.6521 17.5166 29.6738 17.3221 29.6565C17.1275 29.6392 16.9383 29.5832 16.7657 29.4919C16.593 29.4005 16.4403 29.2757 16.3165 29.1245C16.1927 28.9734 16.1003 28.7991 16.0448 28.6119C15.9892 28.4246 15.9716 28.2281 15.9929 28.034C16.0142 27.8398 16.0741 27.6518 16.169 27.4811C16.7833 26.3382 17.1049 25.0609 17.1049 23.7634C17.1049 22.4659 16.7833 21.1886 16.169 20.0458C15.9965 19.7026 15.9653 19.3056 16.0822 18.9397C16.199 18.5739 16.4546 18.2684 16.7941 18.0888C17.1336 17.9092 17.53 17.8698 17.8981 17.9791C18.2663 18.0883 18.5771 18.3375 18.7636 18.6732ZM29.0395 12.8013C30.8451 16.1751 31.7898 19.9424 31.7898 23.7689C31.7898 27.5955 30.8451 31.3628 29.0395 34.7366C28.8441 35.0575 28.533 35.2913 28.1703 35.3897C27.8077 35.4882 27.4211 35.4438 27.0902 35.2658C26.7593 35.0877 26.5093 34.7896 26.3916 34.4327C26.2739 34.0758 26.2976 33.6874 26.4577 33.3475C28.0366 30.3997 28.8628 27.1075 28.8628 23.7634C28.8628 20.4194 28.0366 17.1272 26.4577 14.1794C26.2742 13.8358 26.2348 13.4334 26.348 13.0607C26.4612 12.688 26.7178 12.3755 27.0614 12.1921C27.405 12.0086 27.8074 11.9691 28.1801 12.0824C28.5528 12.1956 28.8652 12.4522 29.0487 12.7958L29.0395 12.8013ZM23.9016 15.7372C25.2194 18.2086 25.9088 20.9663 25.9088 23.7671C25.9088 26.5679 25.2194 29.3256 23.9016 31.797C23.8129 31.9705 23.6906 32.1247 23.5417 32.2505C23.3929 32.3763 23.2204 32.4712 23.0345 32.5296C22.8486 32.5881 22.6529 32.6089 22.4588 32.5909C22.2648 32.5729 22.0762 32.5165 21.9042 32.4249C21.7322 32.3333 21.5801 32.2083 21.4569 32.0573C21.3337 31.9063 21.2418 31.7323 21.1865 31.5454C21.1313 31.3585 21.1138 31.1625 21.1351 30.9688C21.1564 30.775 21.216 30.5875 21.3106 30.4171C22.4023 28.3705 22.9733 26.0866 22.9733 23.7671C22.9733 21.4476 22.4023 19.1637 21.3106 17.1172C21.216 16.9467 21.1564 16.7592 21.1351 16.5655C21.1138 16.3717 21.1313 16.1757 21.1865 15.9888C21.2418 15.8019 21.3337 15.6279 21.4569 15.4769C21.5801 15.3259 21.7322 15.2009 21.9042 15.1093C22.0762 15.0177 22.2648 14.9613 22.4588 14.9433C22.6529 14.9253 22.8486 14.9461 23.0345 15.0046C23.2204 15.063 23.3929 15.1579 23.5417 15.2837C23.6906 15.4095 23.8129 15.5637 23.9016 15.7372Z" fill="black"/>
</svg>
