<svg width="49" height="49" viewBox="0 0 49 49" fill="none" xmlns="http://www.w3.org/2000/svg">
<path d="M42.3538 29.2539V39.7539C42.3538 40.5496 42.0377 41.3126 41.4751 41.8752C40.9125 42.4378 40.1494 42.7539 39.3538 42.7539H9.35376C8.55811 42.7539 7.79505 42.4378 7.23244 41.8752C6.66983 41.3126 6.35376 40.5496 6.35376 39.7539V29.2539C6.35376 28.8561 6.5118 28.4746 6.7931 28.1932C7.0744 27.9119 7.45594 27.7539 7.85376 27.7539C8.25158 27.7539 8.63312 27.9119 8.91442 28.1932C9.19572 28.4746 9.35376 28.8561 9.35376 29.2539V39.7539H39.3538V29.2539C39.3538 28.8561 39.5118 28.4746 39.7931 28.1932C40.0744 27.9119 40.4559 27.7539 40.8538 27.7539C41.2516 27.7539 41.6331 27.9119 41.9144 28.1932C42.1957 28.4746 42.3538 28.8561 42.3538 29.2539ZM23.2925 30.3152C23.4318 30.4546 23.5973 30.5653 23.7794 30.6407C23.9614 30.7162 24.1566 30.7551 24.3538 30.7551C24.5509 30.7551 24.7461 30.7162 24.9282 30.6407C25.1103 30.5653 25.2757 30.4546 25.415 30.3152L32.915 22.8152C33.0544 22.6758 33.1649 22.5103 33.2403 22.3283C33.3158 22.1462 33.3546 21.951 33.3546 21.7539C33.3546 21.5568 33.3158 21.3617 33.2403 21.1796C33.1649 20.9975 33.0544 20.832 32.915 20.6927C32.7756 20.5533 32.6102 20.4427 32.4281 20.3673C32.246 20.2919 32.0509 20.2531 31.8538 20.2531C31.6567 20.2531 31.4615 20.2919 31.2794 20.3673C31.0973 20.4427 30.9319 20.5533 30.7925 20.6927L25.8538 25.6333V8.25391C25.8538 7.85608 25.6957 7.47455 25.4144 7.19325C25.1331 6.91194 24.7516 6.75391 24.3538 6.75391C23.9559 6.75391 23.5744 6.91194 23.2931 7.19325C23.0118 7.47455 22.8538 7.85608 22.8538 8.25391V25.6333L17.915 20.6927C17.6335 20.4112 17.2518 20.2531 16.8538 20.2531C16.4557 20.2531 16.074 20.4112 15.7925 20.6927C15.511 20.9741 15.3529 21.3559 15.3529 21.7539C15.3529 22.152 15.511 22.5337 15.7925 22.8152L23.2925 30.3152Z" fill="#5E41B5"/>
</svg>
