<svg width="676" height="656" viewBox="0 0 676 656" fill="none" xmlns="http://www.w3.org/2000/svg">
<g opacity="0.2" filter="url(#filter0_f_0_63)">
<path d="M575.75 328C575.75 453.921 469.306 556 338 556C206.694 556 100.25 453.921 100.25 328C100.25 202.079 206.694 100 338 100C469.306 100 575.75 202.079 575.75 328ZM185.61 328C185.61 408.711 253.838 474.14 338 474.14C422.162 474.14 490.39 408.711 490.39 328C490.39 247.289 422.162 181.86 338 181.86C253.838 181.86 185.61 247.289 185.61 328Z" fill="url(#paint0_linear_0_63)"/>
</g>
<defs>
<filter id="filter0_f_0_63" x="0.25" y="0" width="675.5" height="656" filterUnits="userSpaceOnUse" color-interpolation-filters="sRGB">
<feFlood flood-opacity="0" result="BackgroundImageFix"/>
<feBlend mode="normal" in="SourceGraphic" in2="BackgroundImageFix" result="shape"/>
<feGaussianBlur stdDeviation="50" result="effect1_foregroundBlur_0_63"/>
</filter>
<linearGradient id="paint0_linear_0_63" x1="546.5" y1="328" x2="338" y2="556" gradientUnits="userSpaceOnUse">
<stop stop-color="#8000FF"/>
<stop offset="1" stop-color="#FF00C7"/>
</linearGradient>
</defs>
</svg>
