<svg width="48" height="48" viewBox="0 0 48 48" fill="none" xmlns="http://www.w3.org/2000/svg">
<g clip-path="url(#clip0_0_477)">
<path d="M24 48C37.2548 48 48 37.2548 48 24C48 10.7452 37.2548 0 24 0C10.7452 0 0 10.7452 0 24C0 37.2548 10.7452 48 24 48Z" fill="#3C5A9A"/>
<path d="M31.8047 7.36719H26.4881C23.3331 7.36719 19.8238 8.69415 19.8238 13.2675C19.8392 14.8611 19.8238 16.3872 19.8238 18.1048H16.1738V23.9129H19.9367V40.6336H26.8513V23.8026H31.4151L31.828 18.0885H26.7321C26.7321 18.0885 26.7435 15.5466 26.7321 14.8084C26.7321 13.0011 28.6127 13.1046 28.7258 13.1046C29.6207 13.1046 31.3607 13.1072 31.8073 13.1046V7.36719H31.8047Z" fill="white"/>
</g>
<defs>
<clipPath id="clip0_0_477">
<rect width="48" height="48" fill="white"/>
</clipPath>
</defs>
</svg>
