<svg width="48" height="48" viewBox="0 0 48 48" fill="none" xmlns="http://www.w3.org/2000/svg">
<g clip-path="url(#clip0_0_413)">
<path d="M24 48C37.2548 48 48 37.2549 48 24C48 10.7452 37.2548 3.8147e-05 24 3.8147e-05C10.7452 3.8147e-05 0 10.7452 0 24C0 37.2549 10.7452 48 24 48Z" fill="#3C5A9A"/>
<path d="M31.8047 7.36676H26.4881C23.3331 7.36676 19.8238 8.69373 19.8238 13.2671C19.8392 14.8606 19.8238 16.3868 19.8238 18.1043H16.1738V23.9125H19.9367V40.6332H26.8513V23.8022H31.4151L31.828 18.088H26.7321C26.7321 18.088 26.7435 15.5462 26.7321 14.808C26.7321 13.0007 28.6127 13.1042 28.7258 13.1042C29.6207 13.1042 31.3607 13.1068 31.8073 13.1042V7.36676H31.8047Z" fill="white"/>
</g>
<defs>
<clipPath id="clip0_0_413">
<rect width="48" height="48" fill="white"/>
</clipPath>
</defs>
</svg>
