<svg width="48" height="48" viewBox="0 0 48 48" fill="none" xmlns="http://www.w3.org/2000/svg">
<g clip-path="url(#clip0_0_186)">
<path d="M24 48C37.2548 48 48 37.2548 48 24C48 10.7452 37.2548 0 24 0C10.7452 0 0 10.7452 0 24C0 37.2548 10.7452 48 24 48Z" fill="#3C5A9A"/>
<path d="M31.8037 7.3667H26.4871C23.3321 7.3667 19.8228 8.69367 19.8228 13.267C19.8382 14.8606 19.8228 16.3867 19.8228 18.1043H16.1729V23.9124H19.9358V40.6331H26.8503V23.8021H31.4141L31.827 18.088H26.7311C26.7311 18.088 26.7425 15.5461 26.7311 14.8079C26.7311 13.0006 28.6117 13.1041 28.7248 13.1041C29.6197 13.1041 31.3597 13.1067 31.8063 13.1041V7.3667H31.8037Z" fill="white"/>
</g>
<defs>
<clipPath id="clip0_0_186">
<rect width="48" height="48" fill="white"/>
</clipPath>
</defs>
</svg>
