<svg width="758" height="758" viewBox="0 0 758 758" fill="none" xmlns="http://www.w3.org/2000/svg">
<mask id="mask0_30_887" style="mask-type:luminance" maskUnits="userSpaceOnUse" x="0" y="0" width="758" height="758">
<path d="M758 0H0V758H758V0Z" fill="white"/>
</mask>
<g mask="url(#mask0_30_887)">
<mask id="mask1_30_887" style="mask-type:luminance" maskUnits="userSpaceOnUse" x="-73" y="-59" width="904" height="904">
<path d="M-72.7646 -58.6187H830.771V844.917H-72.7646V-58.6187Z" fill="white"/>
</mask>
<g mask="url(#mask1_30_887)">
<path d="M534.224 162.848H533.615V98.9558C533.615 77.7712 516.441 60.5977 495.257 60.5977H262.752C241.568 60.5977 224.394 77.7712 224.394 98.9558V162.848H223.785C221.02 162.848 218.777 165.09 218.777 167.856V212.052C218.777 214.818 221.02 217.06 223.785 217.06H224.394V227.601H223.785C221.02 227.601 218.777 229.843 218.777 232.609V276.806C218.777 279.571 221.02 281.813 223.785 281.813H224.394V668.87C224.394 690.055 241.568 707.228 262.752 707.228H495.257C516.441 707.228 533.615 690.055 533.615 668.87V244.166H534.224C536.99 244.166 539.231 241.924 539.231 239.158V167.856C539.231 165.09 536.99 162.848 534.224 162.848Z" fill="#333343"/>
<path d="M491.298 697.741H266.712C249.505 697.741 235.557 683.793 235.557 666.586V101.24C235.557 84.0334 249.505 70.085 266.712 70.085H491.298C508.505 70.085 522.453 84.0334 522.453 101.24V666.586C522.453 683.793 508.505 697.741 491.298 697.741Z" fill="white"/>
<mask id="mask2_30_887" style="mask-type:alpha" maskUnits="userSpaceOnUse" x="235" y="70" width="288" height="628">
<path d="M491.298 697.741H266.712C249.505 697.741 235.557 683.792 235.557 666.586V101.24C235.557 84.033 249.505 70.0845 266.712 70.0845H491.298C508.505 70.0845 522.453 84.033 522.453 101.24V666.586C522.453 683.792 508.505 697.741 491.298 697.741Z" fill="white"/>
</mask>
<g mask="url(#mask2_30_887)">
<mask id="mask3_30_887" style="mask-type:luminance" maskUnits="userSpaceOnUse" x="235" y="67" width="288" height="764">
<path d="M235.344 67.3735H522.668V830.56H235.344V67.3735Z" fill="white"/>
</mask>
<g mask="url(#mask3_30_887)">
<path d="M522.668 67.374H235.344V830.561H522.668V67.374Z" fill="white"/>
<mask id="mask4_30_887" style="mask-type:alpha" maskUnits="userSpaceOnUse" x="263" y="171" width="40" height="13">
<path d="M302.282 171.883V183.629H263.43V171.883H302.282Z" fill="white"/>
</mask>
<g mask="url(#mask4_30_887)">
<path d="M499.476 178.81V212.09C499.476 213.254 498.532 214.199 497.368 214.199H258.985C257.822 214.199 256.877 213.254 256.877 212.09V178.81C256.877 177.647 257.822 176.702 258.985 176.702H497.368C498.532 176.702 499.476 177.647 499.476 178.81Z" fill="white"/>
<path d="M499.476 178.81V212.09C499.476 213.254 498.532 214.199 497.368 214.199H258.985C257.822 214.199 256.877 213.254 256.877 212.09V178.81C256.877 177.647 257.822 176.702 258.985 176.702H497.368C498.532 176.702 499.476 177.647 499.476 178.81Z" stroke="#AAA5A1" stroke-width="0.301179"/>
</g>
<mask id="mask5_30_887" style="mask-type:alpha" maskUnits="userSpaceOnUse" x="263" y="226" width="40" height="13">
<path d="M302.282 226.923V238.669H263.43V226.923H302.282Z" fill="white"/>
</mask>
<g mask="url(#mask5_30_887)">
<path d="M499.476 233.85V267.131C499.476 268.294 498.532 269.239 497.368 269.239H258.985C257.822 269.239 256.877 268.294 256.877 267.131V233.85C256.877 232.687 257.822 231.742 258.985 231.742H497.368C498.532 231.742 499.476 232.687 499.476 233.85Z" fill="white"/>
<path d="M499.476 233.85V267.131C499.476 268.294 498.532 269.239 497.368 269.239H258.985C257.822 269.239 256.877 268.294 256.877 267.131V233.85C256.877 232.687 257.822 231.742 258.985 231.742H497.368C498.532 231.742 499.476 232.687 499.476 233.85Z" stroke="#AAA5A1" stroke-width="0.301179"/>
</g>
<path d="M270.822 673.621C270.822 674.178 270.66 674.603 270.335 674.895C270.006 675.184 269.555 675.331 268.982 675.331C268.401 675.331 267.934 675.108 267.585 674.66C267.232 674.211 267.058 673.63 267.058 672.919V671.829C267.058 671.127 267.232 670.552 267.585 670.103C267.934 669.651 268.401 669.428 268.982 669.428C269.555 669.428 270.006 669.576 270.335 669.877C270.66 670.175 270.822 670.594 270.822 671.127H271.334L271.344 671.1C271.356 670.434 271.145 669.913 270.711 669.534C270.277 669.151 269.702 668.961 268.982 668.961C268.241 668.961 267.648 669.229 267.193 669.766C266.742 670.305 266.516 670.994 266.516 671.838V672.919C266.516 673.768 266.742 674.458 267.193 674.991C267.648 675.524 268.241 675.792 268.982 675.792C269.693 675.792 270.268 675.596 270.705 675.208C271.142 674.819 271.356 674.298 271.344 673.648L271.334 673.621H270.822ZM275.503 675.611C275.783 675.491 276.012 675.34 276.183 675.157L275.952 674.783C275.786 674.952 275.575 675.084 275.322 675.184C275.069 675.283 274.795 675.331 274.494 675.331C273.991 675.331 273.599 675.145 273.313 674.774C273.03 674.404 272.889 673.937 272.889 673.377V673.226H276.322V672.801C276.322 672.151 276.156 671.633 275.831 671.247C275.503 670.865 275.042 670.672 274.443 670.672C273.846 670.672 273.346 670.904 272.946 671.365C272.542 671.826 272.34 672.413 272.34 673.124V673.377C272.34 674.084 272.539 674.663 272.94 675.115C273.337 675.566 273.855 675.792 274.494 675.792C274.885 675.792 275.223 675.732 275.503 675.611ZM275.431 671.564C275.659 671.847 275.774 672.208 275.774 672.645V672.759H272.949L272.934 672.732C272.979 672.271 273.139 671.889 273.407 671.588C273.678 671.287 274.024 671.136 274.443 671.136C274.87 671.136 275.202 671.281 275.431 671.564ZM277.424 670.762V675.696H277.969V672.205C278.078 671.883 278.25 671.624 278.487 671.434C278.725 671.241 279.042 671.145 279.43 671.145C279.819 671.145 280.12 671.262 280.331 671.497C280.542 671.732 280.647 672.13 280.647 672.696V675.696H281.195V672.69C281.195 671.997 281.054 671.488 280.773 671.163C280.496 670.835 280.087 670.672 279.554 670.672C279.186 670.672 278.867 670.753 278.599 670.919C278.334 671.085 278.117 671.32 277.957 671.621L277.906 670.762H277.424ZM282.921 669.501V670.762H282.068V671.211H282.921V674.425C282.921 674.898 283.017 675.244 283.21 675.464C283.403 675.681 283.674 675.792 284.02 675.792C284.126 675.792 284.234 675.78 284.342 675.756C284.448 675.735 284.541 675.705 284.613 675.669L284.532 675.262C284.445 675.28 284.373 675.295 284.309 675.301C284.246 675.31 284.183 675.313 284.117 675.313C283.921 675.313 283.764 675.244 283.65 675.111C283.532 674.976 283.472 674.747 283.472 674.425V671.211H284.559V670.762H283.472V669.501H282.921ZM287.944 670.723C287.905 670.711 287.857 670.699 287.794 670.687C287.734 670.678 287.67 670.672 287.604 670.672C287.273 670.672 286.987 670.756 286.746 670.928C286.508 671.097 286.315 671.335 286.174 671.639V671.585L286.104 670.762H285.625V675.696H286.174V672.289C286.267 671.952 286.424 671.687 286.643 671.494C286.863 671.302 287.146 671.205 287.49 671.205L287.878 671.232L287.944 670.723ZM288.505 673.307C288.505 674.036 288.706 674.633 289.104 675.096C289.502 675.56 290.032 675.792 290.694 675.792C291.351 675.792 291.878 675.56 292.275 675.096C292.67 674.633 292.869 674.036 292.869 673.307V673.157C292.869 672.431 292.67 671.835 292.272 671.371C291.875 670.904 291.345 670.672 290.685 670.672C290.029 670.672 289.502 670.904 289.104 671.371C288.706 671.835 288.505 672.431 288.505 673.157V673.307ZM289.053 673.157C289.053 672.594 289.197 672.118 289.487 671.726C289.776 671.332 290.173 671.136 290.685 671.136C291.197 671.136 291.598 671.332 291.89 671.726C292.182 672.118 292.327 672.594 292.327 673.157V673.307C292.327 673.88 292.182 674.359 291.89 674.747C291.601 675.136 291.203 675.331 290.694 675.331C290.176 675.331 289.776 675.136 289.487 674.747C289.197 674.359 289.053 673.88 289.053 673.307V673.157ZM296.064 673.368C296.064 674.106 296.23 674.693 296.564 675.133C296.896 675.572 297.356 675.792 297.947 675.792C298.296 675.792 298.6 675.723 298.859 675.581C299.118 675.443 299.329 675.241 299.498 674.979L299.576 675.696H300.022V668.585H299.474V671.491C299.308 671.232 299.097 671.028 298.844 670.886C298.588 670.744 298.293 670.672 297.956 670.672C297.362 670.672 296.896 670.907 296.564 671.38C296.23 671.853 296.064 672.482 296.064 673.271V673.368ZM296.612 673.271C296.612 672.642 296.733 672.13 296.974 671.735C297.215 671.344 297.576 671.145 298.058 671.145C298.422 671.145 298.718 671.235 298.947 671.41C299.172 671.588 299.35 671.814 299.474 672.094V674.434C299.344 674.711 299.16 674.925 298.928 675.081C298.694 675.238 298.401 675.316 298.049 675.316C297.567 675.316 297.209 675.142 296.971 674.789C296.73 674.437 296.612 673.961 296.612 673.368V673.271ZM304.359 675.611C304.639 675.491 304.868 675.34 305.039 675.157L304.807 674.783C304.642 674.952 304.431 675.084 304.178 675.184C303.928 675.283 303.651 675.331 303.35 675.331C302.847 675.331 302.455 675.145 302.172 674.774C301.886 674.404 301.744 673.937 301.744 673.377V673.226H305.178V672.801C305.178 672.151 305.015 671.633 304.687 671.247C304.362 670.865 303.898 670.672 303.299 670.672C302.702 670.672 302.205 670.904 301.802 671.365C301.398 671.826 301.196 672.413 301.196 673.124V673.377C301.196 674.084 301.395 674.663 301.796 675.115C302.193 675.566 302.711 675.792 303.35 675.792C303.741 675.792 304.079 675.732 304.359 675.611ZM304.286 671.564C304.515 671.847 304.63 672.208 304.63 672.645V672.759H301.805L301.79 672.732C301.835 672.271 301.994 671.889 302.266 671.588C302.534 671.287 302.88 671.136 303.299 671.136C303.726 671.136 304.058 671.281 304.286 671.564ZM312.813 675.696H313.379L310.958 669.058H310.443L308.003 675.696H308.569L309.238 673.844H312.153L312.813 675.696ZM310.689 669.838H310.717L311.976 673.356H309.412L310.689 669.838ZM314.578 669.501V670.762H313.725V671.211H314.578V674.425C314.578 674.898 314.674 675.244 314.867 675.464C315.06 675.681 315.331 675.792 315.677 675.792C315.782 675.792 315.891 675.78 315.999 675.756C316.105 675.735 316.195 675.705 316.27 675.669L316.186 675.262C316.102 675.28 316.029 675.295 315.966 675.301C315.903 675.31 315.84 675.313 315.773 675.313C315.578 675.313 315.421 675.244 315.304 675.111C315.189 674.976 315.129 674.747 315.129 674.425V671.211H316.213V670.762H315.129V669.501H314.578ZM320.165 675.611C320.445 675.491 320.674 675.34 320.845 675.157L320.613 674.783C320.448 674.952 320.237 675.084 319.984 675.184C319.734 675.283 319.457 675.331 319.156 675.331C318.653 675.331 318.261 675.145 317.978 674.774C317.692 674.404 317.55 673.937 317.55 673.377V673.226H320.984V672.801C320.984 672.151 320.821 671.633 320.493 671.247C320.168 670.865 319.704 670.672 319.104 670.672C318.508 670.672 318.011 670.904 317.608 671.365C317.204 671.826 317.002 672.413 317.002 673.124V673.377C317.002 674.084 317.201 674.663 317.602 675.115C317.999 675.566 318.517 675.792 319.156 675.792C319.547 675.792 319.884 675.732 320.165 675.611ZM320.092 671.564C320.321 671.847 320.436 672.208 320.436 672.645V672.759H317.611L317.596 672.732C317.641 672.271 317.8 671.889 318.071 671.588C318.339 671.287 318.686 671.136 319.104 671.136C319.532 671.136 319.863 671.281 320.092 671.564ZM322.086 670.762V675.696H322.634V672.205C322.74 671.883 322.911 671.624 323.149 671.434C323.39 671.241 323.703 671.145 324.092 671.145C324.48 671.145 324.782 671.262 324.992 671.497C325.203 671.732 325.309 672.13 325.309 672.696V675.696H325.857V672.69C325.857 671.997 325.715 671.488 325.438 671.163C325.158 670.835 324.749 670.672 324.215 670.672C323.848 670.672 323.529 670.753 323.264 670.919C322.996 671.085 322.782 671.32 322.619 671.621L322.568 670.762H322.086ZM327.929 674.762C327.679 674.386 327.552 673.907 327.552 673.326V673.133C327.552 672.564 327.679 672.088 327.929 671.708C328.182 671.326 328.567 671.136 329.082 671.136C329.456 671.136 329.772 671.253 330.031 671.491C330.29 671.726 330.42 672.042 330.42 672.437H330.908L330.917 672.41C330.929 671.889 330.757 671.47 330.405 671.151C330.052 670.832 329.613 670.672 329.082 670.672C328.426 670.672 327.917 670.904 327.552 671.365C327.188 671.826 327.004 672.416 327.004 673.133V673.326C327.004 674.045 327.188 674.636 327.556 675.099C327.92 675.56 328.432 675.792 329.089 675.792C329.576 675.792 330.007 675.639 330.378 675.331C330.748 675.024 330.929 674.642 330.917 674.187L330.908 674.16H330.42C330.42 674.527 330.284 674.813 330.016 675.021C329.748 675.229 329.438 675.331 329.089 675.331C328.567 675.331 328.182 675.142 327.929 674.762ZM332.7 670.762H332.155V675.696H332.7V670.762ZM332.7 668.585H332.155V669.35H332.7V668.585ZM333.901 673.307C333.901 674.036 334.1 674.633 334.501 675.096C334.898 675.56 335.428 675.792 336.091 675.792C336.747 675.792 337.275 675.56 337.669 675.096C338.067 674.633 338.265 674.036 338.265 673.307V673.157C338.265 672.431 338.067 671.835 337.669 671.371C337.269 670.904 336.741 670.672 336.082 670.672C335.425 670.672 334.898 670.904 334.501 671.371C334.1 671.835 333.901 672.431 333.901 673.157V673.307ZM334.449 673.157C334.449 672.594 334.594 672.118 334.883 671.726C335.172 671.332 335.57 671.136 336.082 671.136C336.591 671.136 336.994 671.332 337.284 671.726C337.576 672.118 337.723 672.594 337.723 673.157V673.307C337.723 673.88 337.579 674.359 337.287 674.747C336.997 675.136 336.597 675.331 336.091 675.331C335.573 675.331 335.172 675.136 334.883 674.747C334.594 674.359 334.449 673.88 334.449 673.307V673.157ZM339.404 670.762V675.696H339.952V672.205C340.057 671.883 340.229 671.624 340.47 671.434C340.708 671.241 341.021 671.145 341.41 671.145C341.798 671.145 342.099 671.262 342.31 671.497C342.521 671.732 342.626 672.13 342.626 672.696V675.696H343.175V672.69C343.175 671.997 343.036 671.488 342.756 671.163C342.476 670.835 342.069 670.672 341.533 670.672C341.166 670.672 340.85 670.753 340.581 670.919C340.313 671.085 340.1 671.32 339.937 671.621L339.889 670.762H339.404ZM350.566 675.696C350.52 675.536 350.487 675.374 350.466 675.208C350.448 675.045 350.436 674.877 350.436 674.702V672.277C350.436 671.759 350.273 671.365 349.945 671.088C349.617 670.811 349.18 670.672 348.641 670.672C348.099 670.672 347.662 670.814 347.325 671.094C346.991 671.374 346.831 671.702 346.849 672.073L346.858 672.1H347.364C347.364 671.823 347.478 671.594 347.707 671.41C347.936 671.229 348.24 671.136 348.614 671.136C349.021 671.136 349.337 671.238 349.56 671.437C349.782 671.639 349.894 671.916 349.894 672.268V672.88H348.683C348.066 672.88 347.563 673.015 347.177 673.289C346.792 673.563 346.599 673.919 346.599 674.359C346.599 674.801 346.732 675.151 346.997 675.407C347.262 675.663 347.638 675.792 348.12 675.792C348.518 675.792 348.873 675.705 349.177 675.53C349.484 675.355 349.725 675.133 349.894 674.868C349.894 674.997 349.903 675.124 349.918 675.25C349.936 675.374 349.96 675.521 349.993 675.696H350.566ZM347.421 675.054C347.238 674.883 347.144 674.657 347.144 674.38C347.144 674.081 347.289 673.825 347.578 673.615C347.867 673.404 348.234 673.298 348.677 673.298H349.894V674.241C349.785 674.554 349.578 674.81 349.27 675.009C348.963 675.208 348.599 675.307 348.18 675.307C347.858 675.307 347.605 675.223 347.421 675.054ZM356.577 672.937C357.273 672.937 357.812 672.762 358.194 672.41C358.577 672.058 358.767 671.585 358.767 670.994C358.767 670.416 358.577 669.946 358.194 669.591C357.812 669.236 357.273 669.058 356.577 669.058H354.288V675.696H354.836V672.937H356.577ZM354.836 669.522H356.577C357.125 669.522 357.535 669.663 357.809 669.943C358.083 670.226 358.219 670.579 358.219 671.003C358.219 671.428 358.083 671.777 357.809 672.055C357.535 672.335 357.125 672.473 356.577 672.473H354.836V669.522ZM363.613 675.696C363.567 675.536 363.534 675.374 363.513 675.208C363.495 675.045 363.483 674.877 363.483 674.702V672.277C363.483 671.759 363.32 671.365 362.992 671.088C362.664 670.811 362.23 670.672 361.688 670.672C361.146 670.672 360.709 670.814 360.372 671.094C360.038 671.374 359.878 671.702 359.896 672.073L359.905 672.1H360.411C360.411 671.823 360.526 671.594 360.757 671.41C360.986 671.229 361.288 671.136 361.661 671.136C362.068 671.136 362.384 671.238 362.607 671.437C362.83 671.639 362.941 671.916 362.941 672.268V672.88H361.73C361.113 672.88 360.61 673.015 360.224 673.289C359.839 673.563 359.646 673.919 359.646 674.359C359.646 674.801 359.779 675.151 360.044 675.407C360.312 675.663 360.685 675.792 361.17 675.792C361.568 675.792 361.92 675.705 362.227 675.53C362.534 675.355 362.772 675.133 362.941 674.868C362.941 674.997 362.95 675.124 362.968 675.25C362.983 675.374 363.01 675.521 363.043 675.696H363.613ZM360.468 675.054C360.285 674.883 360.194 674.657 360.194 674.38C360.194 674.081 360.339 673.825 360.625 673.615C360.914 673.404 361.281 673.298 361.724 673.298H362.941V674.241C362.833 674.554 362.625 674.81 362.318 675.009C362.01 675.208 361.649 675.307 361.227 675.307C360.905 675.307 360.652 675.223 360.468 675.054ZM365.585 674.762C365.335 674.386 365.209 673.907 365.209 673.326V673.133C365.209 672.564 365.335 672.088 365.585 671.708C365.838 671.326 366.224 671.136 366.739 671.136C367.112 671.136 367.429 671.253 367.688 671.491C367.947 671.726 368.076 672.042 368.076 672.437H368.564L368.573 672.41C368.585 671.889 368.413 671.47 368.061 671.151C367.709 670.832 367.269 670.672 366.739 670.672C366.082 670.672 365.573 670.904 365.209 671.365C364.844 671.826 364.661 672.416 364.661 673.133V673.326C364.661 674.045 364.844 674.636 365.209 675.099C365.576 675.56 366.088 675.792 366.745 675.792C367.233 675.792 367.663 675.639 368.034 675.331C368.404 675.024 368.585 674.642 368.573 674.187L368.564 674.16H368.076C368.076 674.527 367.941 674.813 367.673 675.021C367.401 675.229 367.094 675.331 366.745 675.331C366.224 675.331 365.838 675.142 365.585 674.762ZM370.353 670.762H369.811V675.696H370.353V670.762ZM370.353 668.585H369.811V669.35H370.353V668.585ZM374.747 675.611C375.027 675.491 375.256 675.34 375.428 675.157L375.196 674.783C375.03 674.952 374.819 675.084 374.566 675.184C374.313 675.283 374.039 675.331 373.738 675.331C373.235 675.331 372.844 675.145 372.558 674.774C372.275 674.404 372.133 673.937 372.133 673.377V673.226H375.566V672.801C375.566 672.151 375.401 671.633 375.075 671.247C374.75 670.865 374.286 670.672 373.687 670.672C373.091 670.672 372.594 670.904 372.19 671.365C371.787 671.826 371.585 672.413 371.585 673.124V673.377C371.585 674.084 371.784 674.663 372.184 675.115C372.582 675.566 373.1 675.792 373.738 675.792C374.13 675.792 374.467 675.732 374.747 675.611ZM374.675 671.564C374.904 671.847 375.018 672.208 375.018 672.645V672.759H372.193L372.178 672.732C372.223 672.271 372.383 671.889 372.654 671.588C372.922 671.287 373.268 671.136 373.687 671.136C374.115 671.136 374.446 671.281 374.675 671.564ZM376.669 670.762V675.696H377.217V672.205C377.322 671.883 377.494 671.624 377.732 671.434C377.973 671.241 378.286 671.145 378.675 671.145C379.063 671.145 379.364 671.262 379.575 671.497C379.786 671.732 379.891 672.13 379.891 672.696V675.696H380.439V672.69C380.439 671.997 380.298 671.488 380.018 671.163C379.741 670.835 379.331 670.672 378.798 670.672C378.431 670.672 378.111 670.753 377.843 670.919C377.578 671.085 377.361 671.32 377.202 671.621L377.151 670.762H376.669ZM382.165 669.501V670.762H381.313V671.211H382.165V674.425C382.165 674.898 382.262 675.244 382.454 675.464C382.647 675.681 382.918 675.792 383.265 675.792C383.37 675.792 383.478 675.78 383.587 675.756C383.695 675.735 383.786 675.705 383.858 675.669L383.777 675.262C383.689 675.28 383.617 675.295 383.554 675.301C383.49 675.31 383.427 675.313 383.361 675.313C383.165 675.313 383.012 675.244 382.894 675.111C382.777 674.976 382.716 674.747 382.716 674.425V671.211H383.804V670.762H382.716V669.501H382.165ZM387.752 675.611C388.035 675.491 388.261 675.34 388.436 675.157L388.201 674.783C388.035 674.952 387.824 675.084 387.574 675.184C387.321 675.283 387.044 675.331 386.743 675.331C386.243 675.331 385.849 675.145 385.566 674.774C385.279 674.404 385.138 673.937 385.138 673.377V673.226H388.571V672.801C388.571 672.151 388.409 671.633 388.08 671.247C387.755 670.865 387.291 670.672 386.692 670.672C386.099 670.672 385.599 670.904 385.195 671.365C384.791 671.826 384.593 672.413 384.593 673.124V673.377C384.593 674.084 384.791 674.663 385.189 675.115C385.587 675.566 386.105 675.792 386.743 675.792C387.135 675.792 387.472 675.732 387.752 675.611ZM387.68 671.564C387.909 671.847 388.023 672.208 388.023 672.645V672.759H385.198L385.183 672.732C385.231 672.271 385.388 671.889 385.659 671.588C385.93 671.287 386.273 671.136 386.692 671.136C387.123 671.136 387.451 671.281 387.68 671.564ZM392.288 675.066C392.059 675.244 391.746 675.331 391.351 675.331C390.987 675.331 390.671 675.25 390.402 675.09C390.131 674.928 389.987 674.669 389.966 674.313H389.466L389.457 674.34C389.436 674.738 389.598 675.078 389.942 675.364C390.282 675.648 390.752 675.792 391.351 675.792C391.899 675.792 392.339 675.663 392.67 675.407C393.005 675.151 393.17 674.816 393.17 674.407C393.17 674.018 393.023 673.714 392.728 673.485C392.429 673.256 391.993 673.079 391.414 672.952C390.902 672.838 390.559 672.708 390.387 672.561C390.216 672.413 390.131 672.229 390.131 672.003C390.131 671.771 390.231 671.57 390.43 671.398C390.631 671.223 390.93 671.136 391.324 671.136C391.707 671.136 392.014 671.238 392.249 671.437C392.481 671.639 392.595 671.874 392.595 672.145H393.101L393.113 672.118C393.128 671.711 392.972 671.368 392.643 671.088C392.315 670.811 391.875 670.672 391.324 670.672C390.803 670.672 390.381 670.802 390.065 671.064C389.746 671.326 389.586 671.645 389.586 672.021C389.586 672.401 389.731 672.696 390.014 672.907C390.297 673.121 390.731 673.286 391.315 673.407C391.812 673.515 392.152 673.657 392.342 673.828C392.535 674 392.628 674.202 392.628 674.434C392.628 674.678 392.514 674.892 392.288 675.066Z" fill="#AAA5A2"/>
<path d="M424.069 691.002H417.066L420.681 694.39L424.069 691.002Z" fill="#757575"/>
<path d="M476.645 681.993H475.311L477.982 689.487H479.172L481.849 681.993H480.515L478.723 687.463L478.597 687.999H478.563L478.431 687.454L476.645 681.993ZM486.897 685.111H483.964V682.996H487.388V681.993H482.714V689.487H487.424V688.487H483.964V686.117H486.897V685.111ZM491.279 686.379C491.659 686.379 491.96 686.49 492.183 686.719C492.403 686.945 492.514 687.249 492.514 687.634V688.237C492.514 688.475 492.532 688.716 492.571 688.957C492.607 689.198 492.695 689.372 492.833 689.487H494.119V689.369C493.993 689.258 493.902 689.098 493.848 688.89C493.791 688.68 493.764 688.466 493.764 688.246V687.622C493.764 687.177 493.671 686.803 493.484 686.502C493.297 686.201 492.993 685.981 492.571 685.849C492.954 685.68 493.246 685.457 493.448 685.177C493.649 684.897 493.749 684.562 493.749 684.174C493.749 683.475 493.52 682.936 493.065 682.56C492.607 682.18 491.963 681.993 491.129 681.993H488.55V689.487H489.8V686.379H491.279ZM489.8 682.996H491.129C491.592 682.996 491.939 683.105 492.165 683.319C492.391 683.532 492.505 683.828 492.505 684.207C492.505 684.602 492.388 684.894 492.159 685.087C491.93 685.279 491.562 685.376 491.062 685.376H489.8V682.996ZM461.267 705.449C462.218 705.449 462.992 705.154 463.586 704.564C464.182 703.973 464.48 703.211 464.48 702.275V701.136C464.48 700.203 464.182 699.441 463.586 698.844C462.992 698.251 462.218 697.956 461.267 697.956H458.791V705.449H461.267ZM461.267 698.959C461.869 698.959 462.345 699.161 462.697 699.567C463.053 699.974 463.227 700.495 463.227 701.124V702.275C463.227 702.91 463.053 703.434 462.697 703.841C462.345 704.248 461.869 704.449 461.267 704.449H460.044V698.959H461.267ZM467.206 697.956H465.956V705.449H467.206V697.956ZM471.612 702.341C471.995 702.341 472.296 702.452 472.516 702.681C472.739 702.907 472.847 703.211 472.847 703.597V704.199C472.847 704.437 472.868 704.678 472.904 704.919C472.943 705.16 473.031 705.335 473.166 705.449H474.455V705.332C474.329 705.22 474.235 705.061 474.181 704.853C474.127 704.642 474.1 704.428 474.1 704.208V703.585C474.1 703.139 474.007 702.766 473.82 702.465C473.63 702.163 473.326 701.943 472.904 701.811C473.29 701.642 473.582 701.419 473.784 701.139C473.982 700.859 474.085 700.525 474.085 700.136C474.085 699.438 473.856 698.899 473.398 698.522C472.943 698.143 472.299 697.956 471.465 697.956H468.887V705.449H470.136V702.341H471.612ZM470.136 698.959H471.465C471.928 698.959 472.272 699.067 472.498 699.281C472.724 699.495 472.838 699.79 472.838 700.17C472.838 700.564 472.724 700.856 472.495 701.049C472.263 701.242 471.898 701.338 471.398 701.338H470.136V698.959ZM479.777 701.073H476.844V698.959H480.265V697.956H475.591V705.449H480.301V704.449H476.844V702.079H479.777V701.073ZM485.701 703.001C485.701 703.504 485.569 703.889 485.301 704.157C485.036 704.425 484.647 704.558 484.135 704.558C483.614 704.558 483.202 704.356 482.9 703.955C482.599 703.552 482.449 703.04 482.449 702.416V700.983C482.449 700.368 482.596 699.859 482.891 699.456C483.19 699.052 483.593 698.85 484.099 698.85C484.626 698.85 485.024 698.983 485.295 699.251C485.566 699.516 485.701 699.898 485.701 700.401H486.909L486.921 700.368C486.933 699.585 486.686 698.971 486.18 698.522C485.674 698.07 484.982 697.847 484.099 697.847C483.238 697.847 482.539 698.143 482.006 698.736C481.47 699.326 481.202 700.079 481.202 700.992V702.416C481.202 703.335 481.473 704.085 482.015 704.675C482.557 705.262 483.265 705.558 484.135 705.558C484.994 705.558 485.674 705.326 486.18 704.859C486.683 704.395 486.93 703.784 486.915 703.031L486.906 703.001H485.701ZM492.391 703.001C492.391 703.504 492.258 703.889 491.993 704.157C491.728 704.425 491.339 704.558 490.827 704.558C490.306 704.558 489.894 704.356 489.593 703.955C489.291 703.552 489.138 703.04 489.138 702.416V700.983C489.138 700.368 489.288 699.859 489.584 699.456C489.882 699.052 490.282 698.85 490.791 698.85C491.315 698.85 491.713 698.983 491.984 699.251C492.255 699.516 492.391 699.898 492.391 700.401H493.601L493.61 700.368C493.625 699.585 493.378 698.971 492.872 698.522C492.366 698.07 491.674 697.847 490.791 697.847C489.93 697.847 489.231 698.143 488.695 698.736C488.162 699.326 487.894 700.079 487.894 700.992V702.416C487.894 703.335 488.165 704.085 488.707 704.675C489.249 705.262 489.957 705.558 490.827 705.558C491.686 705.558 492.366 705.326 492.869 704.859C493.375 704.395 493.619 703.784 493.607 703.031L493.595 703.001H492.391ZM496.164 697.956H494.914V705.449H496.164V697.956ZM503.73 701.028C503.73 700.115 503.444 699.356 502.866 698.754C502.29 698.149 501.543 697.847 500.628 697.847C499.727 697.847 498.998 698.149 498.438 698.754C497.878 699.356 497.595 700.115 497.595 701.028V702.377C497.595 703.293 497.878 704.052 498.441 704.654C499.004 705.256 499.733 705.558 500.628 705.558C501.546 705.558 502.293 705.256 502.869 704.654C503.444 704.052 503.73 703.293 503.73 702.377V701.028ZM502.48 702.377C502.48 703.013 502.314 703.531 501.983 703.931C501.652 704.332 501.2 704.534 500.628 704.534C500.08 704.534 499.646 704.332 499.327 703.928C499.007 703.525 498.848 703.007 498.848 702.377V701.019C498.848 700.392 499.004 699.88 499.324 699.48C499.64 699.076 500.077 698.877 500.628 698.877C501.197 698.877 501.649 699.076 501.98 699.48C502.314 699.88 502.48 700.392 502.48 701.019V702.377ZM510.913 697.956H509.66V703.344L509.63 703.353L506.311 697.956H505.061V705.449H506.311V700.061L506.341 700.049L509.66 705.449H510.913V697.956Z" fill="#586CC7"/>
</g>
</g>
<g opacity="0.5">
<path d="M419.36 354.104C427.612 354.104 434.311 360.804 434.311 369.055C434.311 377.306 427.612 384.005 419.36 384.005C411.109 384.005 404.41 377.306 404.41 369.055C404.41 360.804 411.109 354.104 419.36 354.104Z" fill="#D6D6D6"/>
</g>
<path d="M419.36 358.304C425.293 358.304 430.111 363.122 430.111 369.055C430.111 374.988 425.293 379.806 419.36 379.806C413.427 379.806 408.609 374.988 408.609 369.055C408.609 363.122 413.427 358.304 419.36 358.304Z" fill="#D6D6D6"/>
</g>
</g>
</svg>
