<svg width="48" height="48" viewBox="0 0 48 48" fill="none" xmlns="http://www.w3.org/2000/svg">
<path d="M10.744 42H0.79268V13.9594H10.744V42ZM5.763 10.1344C2.58157 10.1344 0 7.82812 0 5.04375C0 2.25937 2.58157 0 5.763 0C8.94443 0 11.526 2.25937 11.526 5.04375C11.526 7.82812 8.94443 10.1344 5.763 10.1344ZM47.9893 42H38.0594V28.35C38.0594 25.0969 37.9844 20.925 32.8855 20.925C27.7117 20.925 26.919 24.4594 26.919 28.1156V42H16.9784V13.9594H26.5226V17.7844H26.6619C27.9902 15.5812 31.2359 13.2562 36.0777 13.2562C46.1468 13.2562 48 19.0594 48 26.5969V42H47.9893Z" fill="black"/>
</svg>
