<svg width="64" height="64" viewBox="0 0 64 64" fill="none" xmlns="http://www.w3.org/2000/svg">
<path d="M53.9992 53V46.6C53.9992 45.6 53.3992 44.8 52.3992 44.6L47.1992 43.6C45.3992 43.2 43.9992 41.6 43.9992 39.6V24.2C43.9992 22.2 45.3992 20.6 47.1992 20.2L52.3992 19.2C53.3992 19 53.9992 18.2 53.9992 17.2V11C53.9992 9.8 53.1992 9 51.9992 9H46.5992C43.7992 9 41.1992 10.4 39.7992 12.8C37.3992 16.8 36.1992 21.4 36.1992 26V37.8C36.1992 42.4 37.3992 47 39.7992 51C41.1992 53.4 43.7992 54.8 46.5992 54.8H51.9992C53.1992 55 53.9992 54.2 53.9992 53Z" fill="#607D95"/>
<path d="M48 20.2L52.6 19.2C53.6 19 54.2 18.2 54.2 17.2V11C54.2 9.8 53.4 9 52.2 9H48V20.2Z" fill="#4B6C85"/>
<path d="M51 14.6V9H48V20.2L52.6 19.2C53.6 19 54.2 18.2 54.2 17.2V16.6H53.2C52 16.8 51 15.8 51 14.6Z" fill="#40657C"/>
<path d="M43.6 51.2C41.2 47.2 40 42.5999 40 38V26.2C40 21.6 41.2 17 43.6 13C45 10.6 47.6 9.19995 50.4 9.19995H46.4C43.6 9.19995 41 10.6 39.6 13C37.2 17 36 21.6 36 26.2V38C36 42.5999 37.2 47.2 39.6 51.2C41 53.6 43.6 55 46.4 55H50.4C47.8 55 45.2 53.6 43.6 51.2Z" fill="#4B6C85"/>
<path d="M48 55H52C53.2 55 54 54.2 54 53V46.6C54 45.6 53.4 44.8 52.4 44.6L48 43.8V55Z" fill="#4B6C85"/>
<path d="M51 50V44.4001L48 43.8V55H52C53.2 55 54 54.2 54 53V52H53C51.8 52 51 51.2 51 50Z" fill="#40657C"/>
<path d="M13.1992 21.7998H23.9992V39.7998H13.1992V21.7998Z" fill="#EEF2FA"/>
<path d="M10 21.8H16V39.8H10" fill="#01A6FF"/>
<path d="M20.9992 21.7998V32.9998C20.9992 35.1998 19.1992 36.9998 16.9992 36.9998H13.1992V39.7998H23.9992V21.7998H20.9992Z" fill="#D5E5F2"/>
<path d="M10 37H16V39.8H10V37Z" fill="#006EF4"/>
<path d="M48.2 29.8C48.2 28.6 47.4 27.8 46.2 27.8C47.4 27.8 48.2 27 48.2 25.8C48.2 24.6 47.4 23.8 46.2 23.8H36C36.2 22.4 36.4 21.2 36.6 19.8H32.2C31.4 19.8 30.8 20.2 30.4 21L29.6 22.8C29.2 23.4 28.6 24 27.8 24H24V38H26.6C27.2 38 28 38.4 28.2 39C28.6 39.6 29.2 40 30 40H46C47.2 40 48 39.2001 48 38C48 36.8 47.2 36 46 36C47.2 36 48 35.2 48 34C48 32.8 47.2 32 46 32C47.2 31.8 48.2 31 48.2 29.8Z" fill="#F0C9AE"/>
<path d="M36.8 19.8H32.4C31.6 19.8 31 20.2 30.6 21L29.8 22.8C29.4 23.4 28.8 24 28 24H31C31.8 24 32.4 23.6 32.8 22.8L33.2 22H36.6C36.4 21.2 36.6 20.6 36.8 19.8Z" fill="#E2B698"/>
<path d="M48.2 29.8C48.2 28.6 47.4 27.8 46.2 27.8C47.4 27.8 48.2 27 48.2 25.8C48.2 24.6 47.4 23.8 46.2 23.8H43.2C44.4 23.8 45.2 24.6 45.2 25.8C45.2 27 44.4 27.8 43.2 27.8C44.4 27.8 45.2 28.6 45.2 29.8C45.2 31 44.4 31.8 43.2 31.8C44.4 31.8 45.2 32.6 45.2 33.8C45.2 35 44.4 35.8 43.2 35.8C44 35.8 44.6 36.2 45 37H30.2C29.4 37 28.8 36.6 28.4 36C28.2 35.4 27.6 35.2001 27 35.2001V24H24V38H26.6C27.2 38 28 38.4 28.2 39C28.6 39.6 29.2 40 30 40H46C46.2 40 46.4 40 46.8 39.8C47 39.8 47 39.6 47 39.6L47.2 39.4001C47.4 39.4001 47.4 39.2 47.6 39V38.8C47.8 38.4 48 38.2 48 37.8C48 36.6 47.2 35.8 46 35.8C47.2 35.8 48 35 48 33.8C48 32.6 47.2 31.8 46 31.8C47.2 31.8 48.2 31 48.2 29.8Z" fill="#E2B698"/>
<path d="M47.9992 21C47.3992 21 46.9992 20.6 46.9992 20V10C46.9992 9.4 47.3992 9 47.9992 9C48.5992 9 48.9992 9.4 48.9992 10V20C48.9992 20.6 48.5992 21 47.9992 21ZM47.9992 55C47.3992 55 46.9992 54.6 46.9992 54V44C46.9992 43.4 47.3992 43 47.9992 43C48.5992 43 48.9992 43.4 48.9992 44V54C48.9992 54.6 48.5992 55 47.9992 55ZM23.9992 40.8H11.1992C10.5992 40.8 10.1992 40.4 10.1992 39.8C10.1992 39.2 10.5992 38.8 11.1992 38.8H22.9992V22.8H11.1992C10.5992 22.8 10.1992 22.4 10.1992 21.8C10.1992 21.2 10.5992 20.8 11.1992 20.8H23.9992C24.5992 20.8 24.9992 21.2 24.9992 21.8V39.8C24.9992 40.4 24.5992 40.8 23.9992 40.8Z" fill="#004463"/>
<path d="M16 40.8H10C9.4 40.8 9 40.4 9 39.8C9 39.2 9.4 38.8 10 38.8H15V22.8H10C9.4 22.8 9 22.4 9 21.8C9 21.2 9.4 20.8 10 20.8H16C16.6 20.8 17 21.2 17 21.8V39.8C17 40.4 16.6 40.8 16 40.8ZM28.2 24.8H25.2C24.6 24.8 24.2 24.4 24.2 23.8C24.2 23.2 24.6 22.8 25.2 22.8H28.2C28.8 22.8 29.2 23.2 29.2 23.8C29.2 24.4 28.6 24.8 28.2 24.8Z" fill="#004463"/>
<path d="M20.1992 36.7998C20.7515 36.7998 21.1992 36.3521 21.1992 35.7998C21.1992 35.2475 20.7515 34.7998 20.1992 34.7998C19.6469 34.7998 19.1992 35.2475 19.1992 35.7998C19.1992 36.3521 19.6469 36.7998 20.1992 36.7998Z" fill="#004463"/>
<path d="M46.1992 28.7998H42.1992C41.5992 28.7998 41.1992 28.3998 41.1992 27.7998C41.1992 27.1998 41.5992 26.7998 42.1992 26.7998H46.1992C46.7992 26.7998 47.1992 26.3998 47.1992 25.7998C47.1992 25.1998 46.7992 24.7998 46.1992 24.7998H37.1992C36.5992 24.7998 36.1992 24.3998 36.1992 23.7998C36.1992 23.1998 36.5992 22.7998 37.1992 22.7998H46.1992C47.7992 22.7998 49.1992 24.1998 49.1992 25.7998C49.1992 27.3998 47.7992 28.7998 46.1992 28.7998Z" fill="#004463"/>
<path d="M46.1992 32.7998H42.1992C41.5992 32.7998 41.1992 32.3998 41.1992 31.7998C41.1992 31.1998 41.5992 30.7998 42.1992 30.7998H46.1992C46.7992 30.7998 47.1992 30.3998 47.1992 29.7998C47.1992 29.1998 46.7992 28.7998 46.1992 28.7998H42.1992C41.5992 28.7998 41.1992 28.3998 41.1992 27.7998C41.1992 27.1998 41.5992 26.7998 42.1992 26.7998H46.1992C47.7992 26.7998 49.1992 28.1998 49.1992 29.7998C49.1992 31.3998 47.7992 32.7998 46.1992 32.7998Z" fill="#004463"/>
<path d="M46.1992 36.7998H42.1992C41.5992 36.7998 41.1992 36.3998 41.1992 35.7998C41.1992 35.1998 41.5992 34.7998 42.1992 34.7998H46.1992C46.7992 34.7998 47.1992 34.3998 47.1992 33.7998C47.1992 33.1998 46.7992 32.7998 46.1992 32.7998H42.1992C41.5992 32.7998 41.1992 32.3998 41.1992 31.7998C41.1992 31.1998 41.5992 30.7998 42.1992 30.7998H46.1992C47.7992 30.7998 49.1992 32.1998 49.1992 33.7998C49.1992 35.3998 47.7992 36.7998 46.1992 36.7998Z" fill="#004463"/>
<path d="M46.2 40.8H30.2C29 40.8 28 40.2001 27.6 39.2001C27.4 39 27.2 38.8 26.8 38.8H24C23.4 38.8 23 38.4 23 37.8V23.8C23 23.2 23.4 22.8 24 22.8H27.8C28.2 22.8 28.6 22.6001 28.6 22.2001L29.4 20.4C30 19.4 31 18.8 32 18.8H36.4C36.8 18.8 37 19.0001 37.2 19.2001C37.4 19.4001 37.4 19.8 37.4 20C37 21.2 36.8 22.6 36.8 23.8C36.8 24.4 36.2 24.8 35.8 24.8C35.2 24.8 34.8 24.2 34.8 23.8C34.8 22.8 35 21.8 35.2 20.8H32C31.6 20.8 31.2 21 31.2 21.4L30.4 23.2001C29.8 24.2001 28.8 24.8 27.8 24.8H25V36.8H26.6C27.8 36.8 28.6 37.4001 29.2 38.2001C29.4 38.6 29.8 38.8 30 38.8H46C46.6 38.8 47 38.4 47 37.8C47 37.2 46.6 36.8 46 36.8H42C41.4 36.8 41 36.4 41 35.8C41 35.2 41.4 34.8 42 34.8H46C47.6 34.8 49 36.2 49 37.8C49 39.4 47.8 40.8 46.2 40.8Z" fill="#004463"/>
<path d="M52 56H46.6C43.4 56 40.4 54.4 38.8 51.6C36.6 48 35.4 44 35 40C35 39.8 35 39.4 35.2 39.2C35.4 39 35.6 38.8 36 38.8H44C44.6 38.8 45 39.2 45 39.8C45 41.2 46 42.4 47.4 42.6L52.6 43.6C54 43.8 55 45.2 55 46.6V53C55 54.6 53.6 56 52 56ZM37.2 40.8C37.6 44.2 38.8 47.6 40.6 50.6C41.8 52.6 44.2 54 46.6 54H52C52.6 54 53 53.6 53 53V46.6C53 46.2 52.6 45.8 52.2 45.6L47 44.6C45 44.2 43.6 42.8 43.2 40.8H37.2ZM44 24.8H36C35.8 24.8 35.4 24.6 35.2 24.4C35 24.2 35 24 35 23.6C35.4 19.6 36.6 15.6 38.6 12.2C40.4 9.6 43.4 8 46.6 8H52C53.6 8 55 9.4 55 11V17.4C55 18.8 54 20 52.6 20.4L47.4 21.4C46.2 21.6 45.2 22.8 45 24C45 24.4 44.6 24.8 44 24.8ZM37.2 22.8H43.2C43.8 21 45.2 19.6 47 19.4L52.2 18.4C52.6 18.4 53 17.8 53 17.4V11C53 10.4 52.6 10 52 10H46.6C44.2 10 41.8 11.4 40.6 13.4C38.8 16.2 37.6 19.6 37.2 22.8Z" fill="#004463"/>
</svg>
