<svg width="48" height="48" viewBox="0 0 48 48" fill="none" xmlns="http://www.w3.org/2000/svg">
<path d="M47.6836 7.63739C45.9364 8.50139 44.0548 9.07739 42.0868 9.34406C44.1028 8.00006 45.6388 5.87739 46.3684 3.36006C44.4868 4.58673 42.4036 5.49339 40.186 5.97339C38.41 3.87206 35.8756 2.56006 33.0724 2.56006C27.6868 2.56006 23.3284 7.40273 23.3284 13.3867C23.3284 14.2401 23.4148 15.0614 23.578 15.8507C15.4852 15.4027 8.30438 11.0934 3.49478 4.54406C2.65958 6.14406 2.17958 8.00006 2.17958 9.98406C2.17958 13.7387 3.89798 17.0561 6.50918 18.9974C4.91558 18.9441 3.40838 18.4534 2.09318 17.6427C2.09318 17.6854 2.09318 17.7281 2.09318 17.7814C2.09318 23.0294 5.45318 27.4027 9.90758 28.3947C9.09158 28.6401 8.22758 28.7787 7.34438 28.7787C6.72038 28.7787 6.10598 28.7147 5.51078 28.5867C6.74918 32.8854 10.3492 36.0214 14.6116 36.1067C11.2804 39.0081 7.07558 40.7361 2.51558 40.7361C1.72838 40.7361 0.950783 40.6827 0.192383 40.5867C4.50278 43.6587 9.62918 45.4507 15.13 45.4507C33.0532 45.4507 42.8548 28.9601 42.8548 14.6454C42.8548 14.1761 42.8452 13.7067 42.826 13.2481C44.7268 11.7121 46.378 9.80273 47.6836 7.63739Z" fill="#5FA9DD"/>
</svg>
