<svg width="48" height="48" viewBox="0 0 48 48" fill="none" xmlns="http://www.w3.org/2000/svg">
<path d="M47.6832 7.63739C45.936 8.50139 44.0544 9.07739 42.0864 9.34406C44.1024 8.00006 45.6384 5.87739 46.368 3.36006C44.4864 4.58673 42.4032 5.49339 40.1856 5.97339C38.4096 3.87206 35.8752 2.56006 33.072 2.56006C27.6864 2.56006 23.328 7.40273 23.328 13.3867C23.328 14.2401 23.4144 15.0614 23.5776 15.8507C15.4848 15.4027 8.30402 11.0934 3.49442 4.54406C2.65922 6.14406 2.17922 8.00006 2.17922 9.98406C2.17922 13.7387 3.89762 17.0561 6.50882 18.9974C4.91522 18.9441 3.40802 18.4534 2.09282 17.6427C2.09282 17.6854 2.09282 17.7281 2.09282 17.7814C2.09282 23.0294 5.45282 27.4027 9.90722 28.3947C9.09122 28.6401 8.22722 28.7787 7.34402 28.7787C6.72002 28.7787 6.10562 28.7147 5.51042 28.5867C6.74882 32.8854 10.3488 36.0214 14.6112 36.1067C11.28 39.0081 7.07522 40.7361 2.51522 40.7361C1.72802 40.7361 0.950417 40.6827 0.192017 40.5867C4.50242 43.6587 9.62882 45.4507 15.1296 45.4507C33.0528 45.4507 42.8544 28.9601 42.8544 14.6454C42.8544 14.1761 42.8448 13.7067 42.8256 13.2481C44.7264 11.7121 46.3776 9.80273 47.6832 7.63739Z" fill="#5FA9DD"/>
</svg>
