<svg width="48" height="48" viewBox="0 0 48 48" fill="none" xmlns="http://www.w3.org/2000/svg">
<path d="M47.6826 7.63788C45.9354 8.50188 44.0538 9.07788 42.0858 9.34455C44.1018 8.00055 45.6378 5.87788 46.3674 3.36055C44.4858 4.58721 42.4026 5.49388 40.185 5.97388C38.409 3.87255 35.8746 2.56055 33.0714 2.56055C27.6858 2.56055 23.3274 7.40321 23.3274 13.3872C23.3274 14.2405 23.4138 15.0619 23.577 15.8512C15.4842 15.4032 8.30341 11.0939 3.49381 4.54455C2.65861 6.14455 2.17861 8.00055 2.17861 9.98455C2.17861 13.7392 3.89701 17.0565 6.50821 18.9979C4.91461 18.9445 3.40741 18.4539 2.09221 17.6432C2.09221 17.6859 2.09221 17.7285 2.09221 17.7819C2.09221 23.0299 5.45221 27.4032 9.90661 28.3952C9.09061 28.6406 8.22661 28.7792 7.34341 28.7792C6.71941 28.7792 6.10501 28.7152 5.50981 28.5872C6.74821 32.8859 10.3482 36.0219 14.6106 36.1072C11.2794 39.0085 7.07461 40.7365 2.51461 40.7365C1.72741 40.7365 0.949806 40.6832 0.191406 40.5872C4.50181 43.6592 9.62821 45.4512 15.129 45.4512C33.0522 45.4512 42.8538 28.9606 42.8538 14.6459C42.8538 14.1765 42.8442 13.7072 42.825 13.2485C44.7258 11.7125 46.377 9.80321 47.6826 7.63788Z" fill="#5FA9DD"/>
</svg>
