<svg width="48" height="48" viewBox="0 0 48 48" fill="none" xmlns="http://www.w3.org/2000/svg">
<path d="M47.6831 7.63739C45.9359 8.50139 44.0543 9.07739 42.0863 9.34406C44.1023 8.00006 45.6383 5.87739 46.3679 3.36006C44.4863 4.58673 42.4031 5.49339 40.1855 5.97339C38.4095 3.87206 35.8751 2.56006 33.0719 2.56006C27.6863 2.56006 23.3279 7.40273 23.3279 13.3867C23.3279 14.2401 23.4143 15.0614 23.5775 15.8507C15.4847 15.4027 8.30389 11.0934 3.49429 4.54406C2.65909 6.14406 2.17909 8.00006 2.17909 9.98406C2.17909 13.7387 3.89749 17.0561 6.50869 18.9974C4.91509 18.9441 3.40789 18.4534 2.09269 17.6427C2.09269 17.6854 2.09269 17.7281 2.09269 17.7814C2.09269 23.0294 5.45269 27.4027 9.90709 28.3947C9.09109 28.6401 8.22709 28.7787 7.34389 28.7787C6.71989 28.7787 6.10549 28.7147 5.51029 28.5867C6.74869 32.8854 10.3487 36.0214 14.6111 36.1067C11.2799 39.0081 7.07509 40.7361 2.51509 40.7361C1.72789 40.7361 0.950294 40.6827 0.191895 40.5867C4.50229 43.6587 9.62869 45.4507 15.1295 45.4507C33.0527 45.4507 42.8543 28.9601 42.8543 14.6454C42.8543 14.1761 42.8447 13.7067 42.8255 13.2481C44.7263 11.7121 46.3775 9.80273 47.6831 7.63739Z" fill="#5FA9DD"/>
</svg>
